<mxfile host="app.diagrams.net" modified="2020-03-16T02:52:22.308Z" agent="Mozilla/5.0 (Windows NT 10.0; Win64; x64; rv:74.0) Gecko/20100101 Firefox/74.0" etag="1kNDN3cphlga0iahGrBh" version="12.8.5" type="github">
  <diagram id="fgnYmE3izWYNrjhfP__V" name="Page-1">
    <mxGraphModel dx="1278" dy="553" grid="1" gridSize="10" guides="1" tooltips="1" connect="1" arrows="1" fold="1" page="1" pageScale="1" pageWidth="1100" pageHeight="850" math="0" shadow="0">
      <root>
        <mxCell id="0" />
        <mxCell id="1" parent="0" />
        <mxCell id="WxUVMF5Bl-MjO6CZi5yv-3" value="" style="rounded=1;arcSize=10;dashed=1;strokeColor=#F59D56;fillColor=none;gradientColor=none;dashPattern=8 4;strokeWidth=2;" parent="1" vertex="1">
          <mxGeometry x="160" y="120" width="360" height="585" as="geometry" />
        </mxCell>
        <mxCell id="WxUVMF5Bl-MjO6CZi5yv-1" value="VPC" style="points=[[0,0],[0.25,0],[0.5,0],[0.75,0],[1,0],[1,0.25],[1,0.5],[1,0.75],[1,1],[0.75,1],[0.5,1],[0.25,1],[0,1],[0,0.75],[0,0.5],[0,0.25]];outlineConnect=0;gradientColor=none;html=1;whiteSpace=wrap;fontSize=12;fontStyle=0;shape=mxgraph.aws4.group;grIcon=mxgraph.aws4.group_vpc;strokeColor=#248814;fillColor=none;verticalAlign=top;align=left;spacingLeft=30;fontColor=#AAB7B8;dashed=0;" parent="1" vertex="1">
          <mxGeometry x="90" y="80" width="920" height="680" as="geometry" />
        </mxCell>
        <mxCell id="WxUVMF5Bl-MjO6CZi5yv-4" value="" style="rounded=1;arcSize=10;dashed=1;strokeColor=#F59D56;fillColor=none;gradientColor=none;dashPattern=8 4;strokeWidth=2;" parent="1" vertex="1">
          <mxGeometry x="600" y="125" width="360" height="580" as="geometry" />
        </mxCell>
        <mxCell id="WxUVMF5Bl-MjO6CZi5yv-17" value="Private subnet" style="points=[[0,0],[0.25,0],[0.5,0],[0.75,0],[1,0],[1,0.25],[1,0.5],[1,0.75],[1,1],[0.75,1],[0.5,1],[0.25,1],[0,1],[0,0.75],[0,0.5],[0,0.25]];outlineConnect=0;gradientColor=none;html=1;whiteSpace=wrap;fontSize=12;fontStyle=0;shape=mxgraph.aws4.group;grIcon=mxgraph.aws4.group_security_group;grStroke=0;strokeColor=#147EBA;fillColor=#E6F2F8;verticalAlign=top;align=left;spacingLeft=30;fontColor=#147EBA;dashed=0;" parent="1" vertex="1">
          <mxGeometry x="195.19" y="550" width="299.62" height="140" as="geometry" />
        </mxCell>
        <mxCell id="WxUVMF5Bl-MjO6CZi5yv-18" value="Private subnet" style="points=[[0,0],[0.25,0],[0.5,0],[0.75,0],[1,0],[1,0.25],[1,0.5],[1,0.75],[1,1],[0.75,1],[0.5,1],[0.25,1],[0,1],[0,0.75],[0,0.5],[0,0.25]];outlineConnect=0;gradientColor=none;html=1;whiteSpace=wrap;fontSize=12;fontStyle=0;shape=mxgraph.aws4.group;grIcon=mxgraph.aws4.group_security_group;grStroke=0;strokeColor=#147EBA;fillColor=#E6F2F8;verticalAlign=top;align=left;spacingLeft=30;fontColor=#147EBA;dashed=0;" parent="1" vertex="1">
          <mxGeometry x="629.62" y="550" width="300" height="140" as="geometry" />
        </mxCell>
        <mxCell id="WxUVMF5Bl-MjO6CZi5yv-19" value="Public subnet" style="points=[[0,0],[0.25,0],[0.5,0],[0.75,0],[1,0],[1,0.25],[1,0.5],[1,0.75],[1,1],[0.75,1],[0.5,1],[0.25,1],[0,1],[0,0.75],[0,0.5],[0,0.25]];outlineConnect=0;gradientColor=none;html=1;whiteSpace=wrap;fontSize=12;fontStyle=0;shape=mxgraph.aws4.group;grIcon=mxgraph.aws4.group_security_group;grStroke=0;strokeColor=#248814;fillColor=#E9F3E6;verticalAlign=top;align=left;spacingLeft=30;fontColor=#248814;dashed=0;" parent="1" vertex="1">
          <mxGeometry x="190" y="250" width="310" height="130" as="geometry" />
        </mxCell>
        <mxCell id="z1mH5KaN_xipMloraMyD-17" style="edgeStyle=orthogonalEdgeStyle;rounded=0;orthogonalLoop=1;jettySize=auto;html=1;entryX=0;entryY=0.5;entryDx=0;entryDy=0;entryPerimeter=0;" parent="1" source="WxUVMF5Bl-MjO6CZi5yv-20" target="m4tTMfVvqO9qfEUQElSe-2" edge="1">
          <mxGeometry relative="1" as="geometry" />
        </mxCell>
        <mxCell id="WxUVMF5Bl-MjO6CZi5yv-20" value="Public subnet" style="points=[[0,0],[0.25,0],[0.5,0],[0.75,0],[1,0],[1,0.25],[1,0.5],[1,0.75],[1,1],[0.75,1],[0.5,1],[0.25,1],[0,1],[0,0.75],[0,0.5],[0,0.25]];outlineConnect=0;gradientColor=none;html=1;whiteSpace=wrap;fontSize=12;fontStyle=0;shape=mxgraph.aws4.group;grIcon=mxgraph.aws4.group_security_group;grStroke=0;strokeColor=#248814;fillColor=#E9F3E6;verticalAlign=top;align=left;spacingLeft=30;fontColor=#248814;dashed=0;" parent="1" vertex="1">
          <mxGeometry x="629.62" y="250" width="300" height="130" as="geometry" />
        </mxCell>
        <mxCell id="WxUVMF5Bl-MjO6CZi5yv-5" value="" style="rounded=1;arcSize=10;dashed=1;strokeColor=#ff0000;fillColor=none;gradientColor=none;dashPattern=8 4;strokeWidth=2;" parent="1" vertex="1">
          <mxGeometry x="190" y="274.5" width="740" height="110" as="geometry" />
        </mxCell>
        <mxCell id="WxUVMF5Bl-MjO6CZi5yv-7" value="" style="rounded=1;arcSize=10;dashed=1;strokeColor=#ff0000;fillColor=none;gradientColor=none;dashPattern=8 4;strokeWidth=2;" parent="1" vertex="1">
          <mxGeometry x="200" y="580" width="729.62" height="110" as="geometry" />
        </mxCell>
        <mxCell id="WxUVMF5Bl-MjO6CZi5yv-48" style="edgeStyle=orthogonalEdgeStyle;rounded=0;orthogonalLoop=1;jettySize=auto;html=1;exitX=0;exitY=0.5;exitDx=0;exitDy=0;entryX=1;entryY=0.5;entryDx=0;entryDy=0;entryPerimeter=0;" parent="1" source="WxUVMF5Bl-MjO6CZi5yv-8" target="WxUVMF5Bl-MjO6CZi5yv-47" edge="1">
          <mxGeometry relative="1" as="geometry" />
        </mxCell>
        <mxCell id="WxUVMF5Bl-MjO6CZi5yv-8" value="" style="aspect=fixed;perimeter=ellipsePerimeter;html=1;align=center;shadow=0;dashed=0;spacingTop=3;image;image=img/lib/active_directory/internet_cloud.svg;" parent="1" vertex="1">
          <mxGeometry x="880" y="20" width="50" height="31.5" as="geometry" />
        </mxCell>
        <mxCell id="WxUVMF5Bl-MjO6CZi5yv-37" style="edgeStyle=orthogonalEdgeStyle;rounded=0;orthogonalLoop=1;jettySize=auto;html=1;exitX=0.5;exitY=1;exitDx=0;exitDy=0;exitPerimeter=0;" parent="1" source="WxUVMF5Bl-MjO6CZi5yv-9" target="WxUVMF5Bl-MjO6CZi5yv-25" edge="1">
          <mxGeometry relative="1" as="geometry">
            <Array as="points">
              <mxPoint x="550" y="190" />
              <mxPoint x="550" y="190" />
            </Array>
          </mxGeometry>
        </mxCell>
        <mxCell id="z1mH5KaN_xipMloraMyD-10" style="edgeStyle=orthogonalEdgeStyle;rounded=0;orthogonalLoop=1;jettySize=auto;html=1;exitX=0.855;exitY=0.145;exitDx=0;exitDy=0;exitPerimeter=0;entryX=0.29;entryY=0.5;entryDx=0;entryDy=0;entryPerimeter=0;" parent="1" source="WxUVMF5Bl-MjO6CZi5yv-9" target="WxUVMF5Bl-MjO6CZi5yv-47" edge="1">
          <mxGeometry relative="1" as="geometry" />
        </mxCell>
        <mxCell id="WxUVMF5Bl-MjO6CZi5yv-9" value="" style="outlineConnect=0;dashed=0;verticalLabelPosition=bottom;verticalAlign=top;align=center;html=1;shape=mxgraph.aws3.internet_gateway;fillColor=#F58534;gradientColor=none;" parent="1" vertex="1">
          <mxGeometry x="526" y="55.75" width="49" height="52" as="geometry" />
        </mxCell>
        <mxCell id="WxUVMF5Bl-MjO6CZi5yv-40" style="edgeStyle=orthogonalEdgeStyle;rounded=0;orthogonalLoop=1;jettySize=auto;html=1;exitX=1;exitY=0.5;exitDx=0;exitDy=0;exitPerimeter=0;" parent="1" source="WxUVMF5Bl-MjO6CZi5yv-23" target="WxUVMF5Bl-MjO6CZi5yv-15" edge="1">
          <mxGeometry relative="1" as="geometry">
            <Array as="points">
              <mxPoint x="567" y="468" />
            </Array>
          </mxGeometry>
        </mxCell>
        <mxCell id="WxUVMF5Bl-MjO6CZi5yv-41" style="edgeStyle=orthogonalEdgeStyle;rounded=0;orthogonalLoop=1;jettySize=auto;html=1;exitX=0;exitY=0.5;exitDx=0;exitDy=0;exitPerimeter=0;" parent="1" source="WxUVMF5Bl-MjO6CZi5yv-23" target="WxUVMF5Bl-MjO6CZi5yv-14" edge="1">
          <mxGeometry relative="1" as="geometry">
            <Array as="points">
              <mxPoint x="520" y="457" />
              <mxPoint x="520" y="467" />
            </Array>
          </mxGeometry>
        </mxCell>
        <mxCell id="WxUVMF5Bl-MjO6CZi5yv-42" style="edgeStyle=orthogonalEdgeStyle;rounded=0;orthogonalLoop=1;jettySize=auto;html=1;exitX=0.5;exitY=0;exitDx=0;exitDy=0;exitPerimeter=0;" parent="1" source="WxUVMF5Bl-MjO6CZi5yv-23" target="WxUVMF5Bl-MjO6CZi5yv-25" edge="1">
          <mxGeometry relative="1" as="geometry" />
        </mxCell>
        <mxCell id="6vO43c98AniMDwSHTN-E-41" style="edgeStyle=orthogonalEdgeStyle;rounded=0;orthogonalLoop=1;jettySize=auto;html=1;exitX=0.5;exitY=1;exitDx=0;exitDy=0;exitPerimeter=0;entryX=1;entryY=0.5;entryDx=0;entryDy=0;entryPerimeter=0;" parent="1" source="WxUVMF5Bl-MjO6CZi5yv-23" target="WxUVMF5Bl-MjO6CZi5yv-26" edge="1">
          <mxGeometry relative="1" as="geometry" />
        </mxCell>
        <mxCell id="WxUVMF5Bl-MjO6CZi5yv-23" value="" style="outlineConnect=0;dashed=0;verticalLabelPosition=bottom;verticalAlign=top;align=center;html=1;shape=mxgraph.aws3.application_load_balancer;fillColor=#F58536;gradientColor=none;" parent="1" vertex="1">
          <mxGeometry x="532.6899999999999" y="440" width="34.62" height="33.5" as="geometry" />
        </mxCell>
        <mxCell id="WxUVMF5Bl-MjO6CZi5yv-50" style="edgeStyle=orthogonalEdgeStyle;rounded=0;orthogonalLoop=1;jettySize=auto;html=1;exitX=0.835;exitY=0.5;exitDx=0;exitDy=0;exitPerimeter=0;" parent="1" source="WxUVMF5Bl-MjO6CZi5yv-25" target="WxUVMF5Bl-MjO6CZi5yv-20" edge="1">
          <mxGeometry relative="1" as="geometry" />
        </mxCell>
        <mxCell id="WxUVMF5Bl-MjO6CZi5yv-51" style="edgeStyle=orthogonalEdgeStyle;rounded=0;orthogonalLoop=1;jettySize=auto;html=1;exitX=0;exitY=0.5;exitDx=0;exitDy=0;exitPerimeter=0;" parent="1" source="WxUVMF5Bl-MjO6CZi5yv-25" target="WxUVMF5Bl-MjO6CZi5yv-19" edge="1">
          <mxGeometry relative="1" as="geometry" />
        </mxCell>
        <mxCell id="WxUVMF5Bl-MjO6CZi5yv-25" value="" style="outlineConnect=0;dashed=0;verticalLabelPosition=bottom;verticalAlign=top;align=center;html=1;shape=mxgraph.aws3.elastic_load_balancing;fillColor=#F58536;gradientColor=none;" parent="1" vertex="1">
          <mxGeometry x="532.6899999999999" y="297.63" width="34.62" height="34.75" as="geometry" />
        </mxCell>
        <mxCell id="WxUVMF5Bl-MjO6CZi5yv-43" style="edgeStyle=orthogonalEdgeStyle;rounded=0;orthogonalLoop=1;jettySize=auto;html=1;exitX=1;exitY=0.5;exitDx=0;exitDy=0;exitPerimeter=0;" parent="1" source="WxUVMF5Bl-MjO6CZi5yv-26" target="WxUVMF5Bl-MjO6CZi5yv-27" edge="1">
          <mxGeometry relative="1" as="geometry" />
        </mxCell>
        <mxCell id="WxUVMF5Bl-MjO6CZi5yv-52" style="edgeStyle=orthogonalEdgeStyle;rounded=0;orthogonalLoop=1;jettySize=auto;html=1;exitX=0;exitY=0.5;exitDx=0;exitDy=0;exitPerimeter=0;" parent="1" source="WxUVMF5Bl-MjO6CZi5yv-26" target="WxUVMF5Bl-MjO6CZi5yv-28" edge="1">
          <mxGeometry relative="1" as="geometry" />
        </mxCell>
        <mxCell id="WxUVMF5Bl-MjO6CZi5yv-26" value="" style="outlineConnect=0;dashed=0;verticalLabelPosition=bottom;verticalAlign=top;align=center;html=1;shape=mxgraph.aws3.rds_db_instance;fillColor=#2E73B8;gradientColor=none;" parent="1" vertex="1">
          <mxGeometry x="410.25" y="584.5" width="49.5" height="66" as="geometry" />
        </mxCell>
        <mxCell id="WxUVMF5Bl-MjO6CZi5yv-45" style="edgeStyle=orthogonalEdgeStyle;rounded=0;orthogonalLoop=1;jettySize=auto;html=1;exitX=1;exitY=0.5;exitDx=0;exitDy=0;exitPerimeter=0;entryX=0;entryY=0.5;entryDx=0;entryDy=0;entryPerimeter=0;" parent="1" source="WxUVMF5Bl-MjO6CZi5yv-27" target="WxUVMF5Bl-MjO6CZi5yv-29" edge="1">
          <mxGeometry relative="1" as="geometry" />
        </mxCell>
        <mxCell id="WxUVMF5Bl-MjO6CZi5yv-27" value="" style="outlineConnect=0;dashed=0;verticalLabelPosition=bottom;verticalAlign=top;align=center;html=1;shape=mxgraph.aws3.rds_db_instance_standby_multi_az;fillColor=#2E73B8;gradientColor=none;" parent="1" vertex="1">
          <mxGeometry x="664.75" y="584.5" width="49.5" height="66" as="geometry" />
        </mxCell>
        <mxCell id="6vO43c98AniMDwSHTN-E-42" style="edgeStyle=orthogonalEdgeStyle;rounded=0;orthogonalLoop=1;jettySize=auto;html=1;exitX=0.5;exitY=0.02;exitDx=0;exitDy=0;exitPerimeter=0;entryX=0.25;entryY=1;entryDx=0;entryDy=0;" parent="1" source="WxUVMF5Bl-MjO6CZi5yv-28" target="WxUVMF5Bl-MjO6CZi5yv-14" edge="1">
          <mxGeometry relative="1" as="geometry" />
        </mxCell>
        <mxCell id="WxUVMF5Bl-MjO6CZi5yv-28" value="" style="outlineConnect=0;dashed=0;verticalLabelPosition=bottom;verticalAlign=top;align=center;html=1;shape=mxgraph.aws3.rds_db_instance_read_replica;fillColor=#2E73B8;gradientColor=none;" parent="1" vertex="1">
          <mxGeometry x="240" y="584.5" width="49.5" height="66" as="geometry" />
        </mxCell>
        <mxCell id="6vO43c98AniMDwSHTN-E-44" style="edgeStyle=orthogonalEdgeStyle;rounded=0;orthogonalLoop=1;jettySize=auto;html=1;exitX=0.5;exitY=0.02;exitDx=0;exitDy=0;exitPerimeter=0;entryX=0.75;entryY=1;entryDx=0;entryDy=0;" parent="1" source="WxUVMF5Bl-MjO6CZi5yv-29" target="WxUVMF5Bl-MjO6CZi5yv-15" edge="1">
          <mxGeometry relative="1" as="geometry" />
        </mxCell>
        <mxCell id="WxUVMF5Bl-MjO6CZi5yv-29" value="" style="outlineConnect=0;dashed=0;verticalLabelPosition=bottom;verticalAlign=top;align=center;html=1;shape=mxgraph.aws3.rds_db_instance_read_replica;fillColor=#2E73B8;gradientColor=none;" parent="1" vertex="1">
          <mxGeometry x="831" y="584.5" width="49.5" height="66" as="geometry" />
        </mxCell>
        <mxCell id="WxUVMF5Bl-MjO6CZi5yv-32" style="edgeStyle=orthogonalEdgeStyle;rounded=0;orthogonalLoop=1;jettySize=auto;html=1;exitX=0.5;exitY=1;exitDx=0;exitDy=0;exitPerimeter=0;entryX=0.5;entryY=0;entryDx=0;entryDy=0;entryPerimeter=0;" parent="1" source="WxUVMF5Bl-MjO6CZi5yv-30" target="WxUVMF5Bl-MjO6CZi5yv-31" edge="1">
          <mxGeometry relative="1" as="geometry" />
        </mxCell>
        <mxCell id="WxUVMF5Bl-MjO6CZi5yv-30" value="" style="outlineConnect=0;dashed=0;verticalLabelPosition=bottom;verticalAlign=top;align=center;html=1;shape=mxgraph.aws3.cloudwatch;fillColor=#759C3E;gradientColor=none;" parent="1" vertex="1">
          <mxGeometry x="25" y="190" width="40" height="33" as="geometry" />
        </mxCell>
        <mxCell id="gUVB6NGTH17oN7rdJM-A-10" style="edgeStyle=orthogonalEdgeStyle;rounded=0;orthogonalLoop=1;jettySize=auto;html=1;" parent="1" source="WxUVMF5Bl-MjO6CZi5yv-31" target="gUVB6NGTH17oN7rdJM-A-9" edge="1">
          <mxGeometry relative="1" as="geometry" />
        </mxCell>
        <mxCell id="WxUVMF5Bl-MjO6CZi5yv-31" value="" style="outlineConnect=0;dashed=0;verticalLabelPosition=bottom;verticalAlign=top;align=center;html=1;shape=mxgraph.aws3.sns;fillColor=#D9A741;gradientColor=none;" parent="1" vertex="1">
          <mxGeometry x="25" y="384.5" width="40" height="30" as="geometry" />
        </mxCell>
        <mxCell id="6vO43c98AniMDwSHTN-E-25" style="edgeStyle=orthogonalEdgeStyle;rounded=0;orthogonalLoop=1;jettySize=auto;html=1;entryX=0.5;entryY=-0.151;entryDx=0;entryDy=0;entryPerimeter=0;" parent="1" source="WxUVMF5Bl-MjO6CZi5yv-33" target="gUVB6NGTH17oN7rdJM-A-1" edge="1">
          <mxGeometry relative="1" as="geometry" />
        </mxCell>
        <mxCell id="z1mH5KaN_xipMloraMyD-12" style="edgeStyle=orthogonalEdgeStyle;rounded=0;orthogonalLoop=1;jettySize=auto;html=1;" parent="1" source="WxUVMF5Bl-MjO6CZi5yv-33" target="m4tTMfVvqO9qfEUQElSe-2" edge="1">
          <mxGeometry relative="1" as="geometry" />
        </mxCell>
        <mxCell id="WxUVMF5Bl-MjO6CZi5yv-33" value="" style="outlineConnect=0;fontColor=#232F3E;gradientColor=none;fillColor=#277116;strokeColor=none;dashed=0;verticalLabelPosition=bottom;verticalAlign=top;align=center;html=1;fontSize=12;fontStyle=0;aspect=fixed;pointerEvents=1;shape=mxgraph.aws4.bucket;" parent="1" vertex="1">
          <mxGeometry x="1019.9999999999999" y="520" width="28.85" height="30" as="geometry" />
        </mxCell>
        <mxCell id="WxUVMF5Bl-MjO6CZi5yv-34" value="" style="outlineConnect=0;dashed=0;verticalLabelPosition=bottom;verticalAlign=top;align=center;html=1;shape=mxgraph.aws3.glacier;fillColor=#E05243;gradientColor=none;" parent="1" vertex="1">
          <mxGeometry x="1016.84" y="760" width="35.19" height="35" as="geometry" />
        </mxCell>
        <mxCell id="6vO43c98AniMDwSHTN-E-12" style="edgeStyle=orthogonalEdgeStyle;rounded=0;orthogonalLoop=1;jettySize=auto;html=1;exitX=1;exitY=0.5;exitDx=0;exitDy=0;exitPerimeter=0;entryX=0;entryY=0.5;entryDx=0;entryDy=0;" parent="1" source="WxUVMF5Bl-MjO6CZi5yv-47" target="WxUVMF5Bl-MjO6CZi5yv-8" edge="1">
          <mxGeometry relative="1" as="geometry" />
        </mxCell>
        <mxCell id="z1mH5KaN_xipMloraMyD-9" style="edgeStyle=orthogonalEdgeStyle;rounded=0;orthogonalLoop=1;jettySize=auto;html=1;exitX=0.29;exitY=0.5;exitDx=0;exitDy=0;exitPerimeter=0;entryX=0.855;entryY=0.145;entryDx=0;entryDy=0;entryPerimeter=0;" parent="1" source="WxUVMF5Bl-MjO6CZi5yv-47" target="WxUVMF5Bl-MjO6CZi5yv-9" edge="1">
          <mxGeometry relative="1" as="geometry" />
        </mxCell>
        <mxCell id="WxUVMF5Bl-MjO6CZi5yv-47" value="" style="outlineConnect=0;dashed=0;verticalLabelPosition=bottom;verticalAlign=top;align=center;html=1;shape=mxgraph.aws3.route_53;fillColor=#F58536;gradientColor=none;" parent="1" vertex="1">
          <mxGeometry x="689.5" y="15.75" width="30" height="40" as="geometry" />
        </mxCell>
        <mxCell id="6vO43c98AniMDwSHTN-E-26" style="edgeStyle=orthogonalEdgeStyle;rounded=0;orthogonalLoop=1;jettySize=auto;html=1;entryX=0.5;entryY=0;entryDx=0;entryDy=0;entryPerimeter=0;" parent="1" source="gUVB6NGTH17oN7rdJM-A-1" target="WxUVMF5Bl-MjO6CZi5yv-34" edge="1">
          <mxGeometry relative="1" as="geometry" />
        </mxCell>
        <mxCell id="gUVB6NGTH17oN7rdJM-A-1" value="" style="outlineConnect=0;fontColor=#232F3E;gradientColor=none;fillColor=#277116;strokeColor=none;dashed=0;verticalLabelPosition=bottom;verticalAlign=top;align=center;html=1;fontSize=12;fontStyle=0;aspect=fixed;pointerEvents=1;shape=mxgraph.aws4.bucket_with_objects;" parent="1" vertex="1">
          <mxGeometry x="1019.9999999999999" y="641.25" width="28.85" height="30" as="geometry" />
        </mxCell>
        <mxCell id="gUVB6NGTH17oN7rdJM-A-4" value="" style="outlineConnect=0;fontColor=#232F3E;gradientColor=none;fillColor=#D05C17;strokeColor=none;dashed=0;verticalLabelPosition=bottom;verticalAlign=top;align=center;html=1;fontSize=12;fontStyle=0;aspect=fixed;pointerEvents=1;shape=mxgraph.aws4.auto_scaling2;" parent="1" vertex="1">
          <mxGeometry x="570" y="487" width="30" height="30" as="geometry" />
        </mxCell>
        <mxCell id="gUVB6NGTH17oN7rdJM-A-5" value="" style="outlineConnect=0;fontColor=#232F3E;gradientColor=none;fillColor=#D05C17;strokeColor=none;dashed=0;verticalLabelPosition=bottom;verticalAlign=top;align=center;html=1;fontSize=12;fontStyle=0;aspect=fixed;pointerEvents=1;shape=mxgraph.aws4.auto_scaling2;" parent="1" vertex="1">
          <mxGeometry x="570" y="334.5" width="30" height="30" as="geometry" />
        </mxCell>
        <mxCell id="gUVB6NGTH17oN7rdJM-A-9" value="" style="outlineConnect=0;dashed=0;verticalLabelPosition=bottom;verticalAlign=top;align=center;html=1;shape=mxgraph.aws3.email;fillColor=#D9A741;gradientColor=none;" parent="1" vertex="1">
          <mxGeometry x="22" y="550" width="46.5" height="31.5" as="geometry" />
        </mxCell>
        <mxCell id="z1mH5KaN_xipMloraMyD-11" style="edgeStyle=orthogonalEdgeStyle;rounded=0;orthogonalLoop=1;jettySize=auto;html=1;exitX=0.5;exitY=1;exitDx=0;exitDy=0;exitPerimeter=0;" parent="1" source="m4tTMfVvqO9qfEUQElSe-2" target="WxUVMF5Bl-MjO6CZi5yv-33" edge="1">
          <mxGeometry relative="1" as="geometry" />
        </mxCell>
        <mxCell id="z1mH5KaN_xipMloraMyD-16" style="edgeStyle=orthogonalEdgeStyle;rounded=0;orthogonalLoop=1;jettySize=auto;html=1;" parent="1" source="m4tTMfVvqO9qfEUQElSe-2" target="WxUVMF5Bl-MjO6CZi5yv-20" edge="1">
          <mxGeometry relative="1" as="geometry" />
        </mxCell>
        <mxCell id="m4tTMfVvqO9qfEUQElSe-2" value="" style="outlineConnect=0;dashed=0;verticalLabelPosition=bottom;verticalAlign=top;align=center;html=1;shape=mxgraph.aws3.cloudfront;fillColor=#F58536;gradientColor=none;" parent="1" vertex="1">
          <mxGeometry x="1030.01" y="290.01" width="40" height="50" as="geometry" />
        </mxCell>
        <mxCell id="m4tTMfVvqO9qfEUQElSe-6" value="Subnet:ACL" style="shape=mxgraph.ibm.box;prType=subnet;fontStyle=0;verticalAlign=top;align=left;spacingLeft=32;spacingTop=4;fillColor=#E6F0E2;rounded=0;whiteSpace=wrap;html=1;strokeColor=#00882B;strokeWidth=1;dashed=0;container=1;spacing=-4;collapsible=0;" parent="1" vertex="1">
          <mxGeometry x="215" y="160" width="250" height="62" as="geometry" />
        </mxCell>
        <mxCell id="m4tTMfVvqO9qfEUQElSe-9" value="" style="outlineConnect=0;dashed=0;verticalLabelPosition=bottom;verticalAlign=top;align=center;html=1;shape=mxgraph.aws3.vpc_nat_gateway;fillColor=#F58534;gradientColor=none;" parent="m4tTMfVvqO9qfEUQElSe-6" vertex="1">
          <mxGeometry x="110" y="10.25" width="40" height="42" as="geometry" />
        </mxCell>
        <mxCell id="6vO43c98AniMDwSHTN-E-18" value="&lt;div&gt;&lt;b&gt;NAT&lt;/b&gt;&lt;/div&gt;&lt;div&gt;&lt;b&gt;Gatewaty&lt;/b&gt;&lt;/div&gt;" style="text;html=1;strokeColor=none;fillColor=none;align=center;verticalAlign=middle;whiteSpace=wrap;rounded=0;" parent="m4tTMfVvqO9qfEUQElSe-6" vertex="1">
          <mxGeometry x="50" y="22" width="60" height="40" as="geometry" />
        </mxCell>
        <mxCell id="m4tTMfVvqO9qfEUQElSe-7" value="Subnet:ACL" style="shape=mxgraph.ibm.box;prType=subnet;fontStyle=0;verticalAlign=top;align=left;spacingLeft=32;spacingTop=4;fillColor=#E6F0E2;rounded=0;whiteSpace=wrap;html=1;strokeColor=#00882B;strokeWidth=1;dashed=0;container=1;spacing=-4;collapsible=0;" parent="1" vertex="1">
          <mxGeometry x="654.62" y="160" width="250" height="62" as="geometry" />
        </mxCell>
        <mxCell id="m4tTMfVvqO9qfEUQElSe-8" value="" style="outlineConnect=0;dashed=0;verticalLabelPosition=bottom;verticalAlign=top;align=center;html=1;shape=mxgraph.aws3.vpc_nat_gateway;fillColor=#F58534;gradientColor=none;" parent="m4tTMfVvqO9qfEUQElSe-7" vertex="1">
          <mxGeometry x="105" y="9.75" width="40" height="42" as="geometry" />
        </mxCell>
        <mxCell id="6vO43c98AniMDwSHTN-E-19" value="&lt;div&gt;&lt;b&gt;NAT&lt;/b&gt;&lt;/div&gt;&lt;div&gt;&lt;b&gt;Gateway&lt;/b&gt;&lt;br&gt;&lt;/div&gt;" style="text;html=1;strokeColor=none;fillColor=none;align=center;verticalAlign=middle;whiteSpace=wrap;rounded=0;" parent="m4tTMfVvqO9qfEUQElSe-7" vertex="1">
          <mxGeometry x="145" y="22" width="55" height="40" as="geometry" />
        </mxCell>
        <mxCell id="m4tTMfVvqO9qfEUQElSe-10" style="edgeStyle=orthogonalEdgeStyle;rounded=0;orthogonalLoop=1;jettySize=auto;html=1;exitX=1;exitY=0.5;exitDx=0;exitDy=0;exitPerimeter=0;" parent="1" source="m4tTMfVvqO9qfEUQElSe-9" target="WxUVMF5Bl-MjO6CZi5yv-9" edge="1">
          <mxGeometry relative="1" as="geometry" />
        </mxCell>
        <mxCell id="m4tTMfVvqO9qfEUQElSe-11" style="edgeStyle=orthogonalEdgeStyle;rounded=0;orthogonalLoop=1;jettySize=auto;html=1;exitX=0;exitY=0.5;exitDx=0;exitDy=0;exitPerimeter=0;" parent="1" source="m4tTMfVvqO9qfEUQElSe-8" edge="1">
          <mxGeometry relative="1" as="geometry">
            <mxPoint x="550" y="110" as="targetPoint" />
          </mxGeometry>
        </mxCell>
        <mxCell id="6vO43c98AniMDwSHTN-E-7" value="Project name" style="fillColor=none;strokeColor=none;html=1;fontSize=11;fontStyle=0;align=left;fontColor=#596780;fontStyle=1;fontSize=11" parent="1" vertex="1">
          <mxGeometry x="10" width="240" height="20" as="geometry" />
        </mxCell>
        <mxCell id="6vO43c98AniMDwSHTN-E-8" value="&lt;div align=&quot;center&quot;&gt;&lt;b&gt;GoGreen Insurance&lt;/b&gt;&lt;/div&gt;" style="rounded=1;arcSize=9;fillColor=#F7F8F9;align=center;spacingLeft=5;strokeColor=#DEE1E6;html=1;strokeWidth=2;fontSize=12" parent="1" vertex="1">
          <mxGeometry x="10" y="25" width="290" height="40" as="geometry" />
        </mxCell>
        <mxCell id="6vO43c98AniMDwSHTN-E-9" value="&lt;b&gt;Internet&lt;/b&gt;" style="text;html=1;strokeColor=none;fillColor=none;align=center;verticalAlign=middle;whiteSpace=wrap;rounded=0;" parent="1" vertex="1">
          <mxGeometry x="875.25" y="51.5" width="59.5" height="20" as="geometry" />
        </mxCell>
        <mxCell id="6vO43c98AniMDwSHTN-E-11" value="&lt;div&gt;&lt;b&gt;Route&lt;/b&gt;&lt;/div&gt;&lt;div&gt;&lt;b&gt;53&lt;/b&gt;&lt;br&gt;&lt;/div&gt;" style="text;html=1;strokeColor=none;fillColor=none;align=center;verticalAlign=middle;whiteSpace=wrap;rounded=0;" parent="1" vertex="1">
          <mxGeometry x="684.5" y="51.5" width="40" height="30" as="geometry" />
        </mxCell>
        <mxCell id="6vO43c98AniMDwSHTN-E-16" value="&lt;div&gt;&lt;b&gt;Internet &lt;br&gt;&lt;/b&gt;&lt;/div&gt;&lt;div&gt;&lt;b&gt;Gateway&lt;br&gt;&lt;/b&gt;&lt;/div&gt;" style="text;html=1;strokeColor=none;fillColor=none;align=center;verticalAlign=middle;whiteSpace=wrap;rounded=0;" parent="1" vertex="1">
          <mxGeometry x="470" y="40" width="50" height="31.5" as="geometry" />
        </mxCell>
        <mxCell id="6vO43c98AniMDwSHTN-E-17" value="&lt;b&gt;ELB&lt;/b&gt;" style="text;html=1;align=center;verticalAlign=middle;resizable=0;points=[];autosize=1;" parent="1" vertex="1">
          <mxGeometry x="560" y="290" width="40" height="20" as="geometry" />
        </mxCell>
        <mxCell id="6vO43c98AniMDwSHTN-E-21" value="&lt;div&gt;&lt;b&gt;S3&lt;br&gt;&lt;/b&gt;&lt;/div&gt;&lt;div&gt;&lt;b&gt;Standard&lt;/b&gt;&lt;/div&gt;&lt;div&gt;&lt;b&gt;IA&lt;/b&gt;&lt;br&gt;&lt;/div&gt;" style="text;html=1;strokeColor=none;fillColor=none;align=center;verticalAlign=middle;whiteSpace=wrap;rounded=0;" parent="1" vertex="1">
          <mxGeometry x="1048.85" y="627.5" width="50.5" height="57.5" as="geometry" />
        </mxCell>
        <mxCell id="6vO43c98AniMDwSHTN-E-24" value="&lt;b&gt;Glacier&lt;/b&gt;" style="text;html=1;align=center;verticalAlign=middle;resizable=0;points=[];autosize=1;" parent="1" vertex="1">
          <mxGeometry x="1010.01" y="790" width="60" height="20" as="geometry" />
        </mxCell>
        <mxCell id="6vO43c98AniMDwSHTN-E-27" value="&lt;b&gt;S3&lt;/b&gt;" style="text;html=1;strokeColor=none;fillColor=none;align=center;verticalAlign=middle;whiteSpace=wrap;rounded=0;" parent="1" vertex="1">
          <mxGeometry x="1048.85" y="525" width="40" height="20" as="geometry" />
        </mxCell>
        <mxCell id="6vO43c98AniMDwSHTN-E-28" value="&lt;div&gt;&lt;b&gt;APP&lt;/b&gt;&lt;/div&gt;&lt;div&gt;&lt;b&gt;ELB&lt;/b&gt;&lt;br&gt;&lt;/div&gt;" style="text;html=1;strokeColor=none;fillColor=none;align=center;verticalAlign=middle;whiteSpace=wrap;rounded=0;" parent="1" vertex="1">
          <mxGeometry x="560" y="433.5" width="50" height="40" as="geometry" />
        </mxCell>
        <mxCell id="6vO43c98AniMDwSHTN-E-29" value="&lt;div&gt;&lt;b&gt;Read&lt;/b&gt;&lt;/div&gt;&lt;div&gt;&lt;b&gt;Replica&lt;/b&gt;&lt;br&gt;&lt;/div&gt;" style="text;html=1;strokeColor=none;fillColor=none;align=center;verticalAlign=middle;whiteSpace=wrap;rounded=0;" parent="1" vertex="1">
          <mxGeometry x="234.75" y="643" width="60" height="45" as="geometry" />
        </mxCell>
        <mxCell id="6vO43c98AniMDwSHTN-E-30" value="&lt;div&gt;&lt;b&gt;Read&lt;/b&gt;&lt;/div&gt;&lt;div&gt;&lt;b&gt;Replica&lt;/b&gt;&lt;br&gt;&lt;/div&gt;" style="text;html=1;strokeColor=none;fillColor=none;align=center;verticalAlign=middle;whiteSpace=wrap;rounded=0;" parent="1" vertex="1">
          <mxGeometry x="825.75" y="641.75" width="60" height="45" as="geometry" />
        </mxCell>
        <mxCell id="6vO43c98AniMDwSHTN-E-31" value="&lt;div align=&quot;center&quot;&gt;&lt;b&gt;Email&lt;/b&gt;&lt;/div&gt;&lt;div align=&quot;center&quot;&gt;&lt;b&gt;Alert&lt;/b&gt;&lt;br&gt;&lt;/div&gt;" style="text;html=1;strokeColor=none;fillColor=none;align=center;verticalAlign=middle;whiteSpace=wrap;rounded=0;" parent="1" vertex="1">
          <mxGeometry x="15.25" y="581.5" width="60" height="40" as="geometry" />
        </mxCell>
        <mxCell id="6vO43c98AniMDwSHTN-E-32" value="&lt;b&gt;SNS&lt;/b&gt;" style="text;html=1;align=center;verticalAlign=middle;resizable=0;points=[];autosize=1;" parent="1" vertex="1">
          <mxGeometry x="50.000000000000114" y="364.5" width="40" height="20" as="geometry" />
        </mxCell>
        <mxCell id="6vO43c98AniMDwSHTN-E-33" value="&lt;b&gt;CloudWatch&lt;/b&gt;" style="text;html=1;strokeColor=none;fillColor=none;align=center;verticalAlign=middle;whiteSpace=wrap;rounded=0;" parent="1" vertex="1">
          <mxGeometry y="160" width="90" height="20" as="geometry" />
        </mxCell>
        <mxCell id="6vO43c98AniMDwSHTN-E-35" value="&lt;b&gt;Autoscaling&lt;/b&gt;" style="text;html=1;strokeColor=none;fillColor=none;align=center;verticalAlign=middle;whiteSpace=wrap;rounded=0;" parent="1" vertex="1">
          <mxGeometry x="550" y="512" width="80" height="23.5" as="geometry" />
        </mxCell>
        <mxCell id="6vO43c98AniMDwSHTN-E-36" value="&lt;b&gt;Autoscaling&lt;/b&gt;" style="text;html=1;strokeColor=none;fillColor=none;align=center;verticalAlign=middle;whiteSpace=wrap;rounded=0;" parent="1" vertex="1">
          <mxGeometry x="550" y="356.5" width="80" height="23.5" as="geometry" />
        </mxCell>
        <mxCell id="6vO43c98AniMDwSHTN-E-37" value="&lt;div&gt;&lt;b&gt;Master&lt;/b&gt;&lt;/div&gt;&lt;div&gt;&lt;b&gt;Database&lt;/b&gt;&lt;br&gt;&lt;/div&gt;" style="text;html=1;strokeColor=none;fillColor=none;align=center;verticalAlign=middle;whiteSpace=wrap;rounded=0;" parent="1" vertex="1">
          <mxGeometry x="405" y="648" width="60" height="35" as="geometry" />
        </mxCell>
        <mxCell id="6vO43c98AniMDwSHTN-E-38" value="&lt;div&gt;&lt;b&gt;Slave&lt;/b&gt;&lt;/div&gt;&lt;div&gt;&lt;b&gt;Database&lt;/b&gt;&lt;br&gt;&lt;/div&gt;" style="text;html=1;strokeColor=none;fillColor=none;align=center;verticalAlign=middle;whiteSpace=wrap;rounded=0;" parent="1" vertex="1">
          <mxGeometry x="659.5" y="645" width="60" height="40" as="geometry" />
        </mxCell>
        <mxCell id="WxUVMF5Bl-MjO6CZi5yv-14" value="Private subnet" style="points=[[0,0],[0.25,0],[0.5,0],[0.75,0],[1,0],[1,0.25],[1,0.5],[1,0.75],[1,1],[0.75,1],[0.5,1],[0.25,1],[0,1],[0,0.75],[0,0.5],[0,0.25]];outlineConnect=0;gradientColor=none;html=1;whiteSpace=wrap;fontSize=12;fontStyle=0;shape=mxgraph.aws4.group;grIcon=mxgraph.aws4.group_security_group;grStroke=0;strokeColor=#147EBA;fillColor=#E6F2F8;verticalAlign=top;align=left;spacingLeft=30;fontColor=#147EBA;dashed=0;" parent="1" vertex="1">
          <mxGeometry x="190" y="400" width="310" height="133" as="geometry" />
        </mxCell>
        <mxCell id="WxUVMF5Bl-MjO6CZi5yv-15" value="Private subnet" style="points=[[0,0],[0.25,0],[0.5,0],[0.75,0],[1,0],[1,0.25],[1,0.5],[1,0.75],[1,1],[0.75,1],[0.5,1],[0.25,1],[0,1],[0,0.75],[0,0.5],[0,0.25]];outlineConnect=0;gradientColor=none;html=1;whiteSpace=wrap;fontSize=12;fontStyle=0;shape=mxgraph.aws4.group;grIcon=mxgraph.aws4.group_security_group;grStroke=0;strokeColor=#147EBA;fillColor=#E6F2F8;verticalAlign=top;align=left;spacingLeft=30;fontColor=#147EBA;dashed=0;" parent="1" vertex="1">
          <mxGeometry x="629.62" y="400" width="300" height="135.5" as="geometry" />
        </mxCell>
        <mxCell id="WxUVMF5Bl-MjO6CZi5yv-6" value="" style="rounded=1;arcSize=10;dashed=1;strokeColor=#ff0000;fillColor=none;gradientColor=none;dashPattern=8 4;strokeWidth=2;" parent="1" vertex="1">
          <mxGeometry x="190.38" y="425.5" width="739.62" height="110" as="geometry" />
        </mxCell>
        <mxCell id="6vO43c98AniMDwSHTN-E-46" value="&lt;b&gt;CloudFront&lt;/b&gt;" style="text;html=1;strokeColor=none;fillColor=none;align=center;verticalAlign=middle;whiteSpace=wrap;rounded=0;" parent="1" vertex="1">
          <mxGeometry x="1011.2199999999998" y="270" width="77.63" height="20" as="geometry" />
        </mxCell>
        <mxCell id="z1mH5KaN_xipMloraMyD-1" value="" style="outlineConnect=0;dashed=0;verticalLabelPosition=bottom;verticalAlign=top;align=center;html=1;shape=mxgraph.aws3.iam;fillColor=#759C3E;gradientColor=none;" parent="1" vertex="1">
          <mxGeometry x="520" y="779" width="25" height="42" as="geometry" />
        </mxCell>
        <mxCell id="z1mH5KaN_xipMloraMyD-2" value="&lt;b&gt;IAM&lt;/b&gt;" style="text;html=1;strokeColor=none;fillColor=none;align=center;verticalAlign=middle;whiteSpace=wrap;rounded=0;" parent="1" vertex="1">
          <mxGeometry x="512.5" y="825" width="40" height="20" as="geometry" />
        </mxCell>
        <mxCell id="3AdVO18dZV3SQrVfkSz4-1" value="" style="outlineConnect=0;dashed=0;verticalLabelPosition=bottom;verticalAlign=top;align=center;html=1;shape=mxgraph.aws3.vpn_gateway;fillColor=#F58534;gradientColor=none;" vertex="1" parent="1">
          <mxGeometry x="990.01" y="107.75" width="40" height="35" as="geometry" />
        </mxCell>
        <mxCell id="3AdVO18dZV3SQrVfkSz4-2" value="" style="outlineConnect=0;fontColor=#232F3E;gradientColor=none;fillColor=#D86613;strokeColor=none;dashed=0;verticalLabelPosition=bottom;verticalAlign=top;align=center;html=1;fontSize=12;fontStyle=0;aspect=fixed;pointerEvents=1;shape=mxgraph.aws4.a1_instance;" vertex="1" parent="1">
          <mxGeometry x="215" y="287" width="33" height="33" as="geometry" />
        </mxCell>
        <mxCell id="3AdVO18dZV3SQrVfkSz4-3" value="" style="outlineConnect=0;fontColor=#232F3E;gradientColor=none;fillColor=#D86613;strokeColor=none;dashed=0;verticalLabelPosition=bottom;verticalAlign=top;align=center;html=1;fontSize=12;fontStyle=0;aspect=fixed;pointerEvents=1;shape=mxgraph.aws4.a1_instance;" vertex="1" parent="1">
          <mxGeometry x="323.5" y="287" width="33" height="33" as="geometry" />
        </mxCell>
        <mxCell id="3AdVO18dZV3SQrVfkSz4-4" value="" style="outlineConnect=0;fontColor=#232F3E;gradientColor=none;fillColor=#D86613;strokeColor=none;dashed=0;verticalLabelPosition=bottom;verticalAlign=top;align=center;html=1;fontSize=12;fontStyle=0;aspect=fixed;pointerEvents=1;shape=mxgraph.aws4.a1_instance;" vertex="1" parent="1">
          <mxGeometry x="426.75" y="287" width="33" height="33" as="geometry" />
        </mxCell>
        <mxCell id="3AdVO18dZV3SQrVfkSz4-5" value="" style="outlineConnect=0;fontColor=#232F3E;gradientColor=none;fillColor=#D86613;strokeColor=none;dashed=0;verticalLabelPosition=bottom;verticalAlign=top;align=center;html=1;fontSize=12;fontStyle=0;aspect=fixed;pointerEvents=1;shape=mxgraph.aws4.a1_instance;" vertex="1" parent="1">
          <mxGeometry x="215" y="340.01" width="33" height="33" as="geometry" />
        </mxCell>
        <mxCell id="3AdVO18dZV3SQrVfkSz4-6" value="" style="outlineConnect=0;fontColor=#232F3E;gradientColor=none;fillColor=#D86613;strokeColor=none;dashed=0;verticalLabelPosition=bottom;verticalAlign=top;align=center;html=1;fontSize=12;fontStyle=0;aspect=fixed;pointerEvents=1;shape=mxgraph.aws4.a1_instance;" vertex="1" parent="1">
          <mxGeometry x="323.5" y="340.01" width="33" height="33" as="geometry" />
        </mxCell>
        <mxCell id="3AdVO18dZV3SQrVfkSz4-7" value="" style="outlineConnect=0;fontColor=#232F3E;gradientColor=none;fillColor=#D86613;strokeColor=none;dashed=0;verticalLabelPosition=bottom;verticalAlign=top;align=center;html=1;fontSize=12;fontStyle=0;aspect=fixed;pointerEvents=1;shape=mxgraph.aws4.a1_instance;" vertex="1" parent="1">
          <mxGeometry x="426.75" y="340.01" width="33" height="33" as="geometry" />
        </mxCell>
        <mxCell id="3AdVO18dZV3SQrVfkSz4-8" value="" style="outlineConnect=0;fontColor=#232F3E;gradientColor=none;fillColor=#D86613;strokeColor=none;dashed=0;verticalLabelPosition=bottom;verticalAlign=top;align=center;html=1;fontSize=12;fontStyle=0;aspect=fixed;pointerEvents=1;shape=mxgraph.aws4.a1_instance;" vertex="1" parent="1">
          <mxGeometry x="763.5" y="283.5" width="33" height="33" as="geometry" />
        </mxCell>
        <mxCell id="3AdVO18dZV3SQrVfkSz4-9" value="" style="outlineConnect=0;fontColor=#232F3E;gradientColor=none;fillColor=#D86613;strokeColor=none;dashed=0;verticalLabelPosition=bottom;verticalAlign=top;align=center;html=1;fontSize=12;fontStyle=0;aspect=fixed;pointerEvents=1;shape=mxgraph.aws4.a1_instance;" vertex="1" parent="1">
          <mxGeometry x="654.62" y="283.5" width="33" height="33" as="geometry" />
        </mxCell>
        <mxCell id="3AdVO18dZV3SQrVfkSz4-10" value="" style="outlineConnect=0;fontColor=#232F3E;gradientColor=none;fillColor=#D86613;strokeColor=none;dashed=0;verticalLabelPosition=bottom;verticalAlign=top;align=center;html=1;fontSize=12;fontStyle=0;aspect=fixed;pointerEvents=1;shape=mxgraph.aws4.a1_instance;" vertex="1" parent="1">
          <mxGeometry x="871.62" y="283.5" width="33" height="33" as="geometry" />
        </mxCell>
        <mxCell id="3AdVO18dZV3SQrVfkSz4-11" value="" style="outlineConnect=0;fontColor=#232F3E;gradientColor=none;fillColor=#D86613;strokeColor=none;dashed=0;verticalLabelPosition=bottom;verticalAlign=top;align=center;html=1;fontSize=12;fontStyle=0;aspect=fixed;pointerEvents=1;shape=mxgraph.aws4.a1_instance;" vertex="1" parent="1">
          <mxGeometry x="871.62" y="333" width="33" height="33" as="geometry" />
        </mxCell>
        <mxCell id="3AdVO18dZV3SQrVfkSz4-12" value="" style="outlineConnect=0;fontColor=#232F3E;gradientColor=none;fillColor=#D86613;strokeColor=none;dashed=0;verticalLabelPosition=bottom;verticalAlign=top;align=center;html=1;fontSize=12;fontStyle=0;aspect=fixed;pointerEvents=1;shape=mxgraph.aws4.a1_instance;" vertex="1" parent="1">
          <mxGeometry x="763.5" y="334.5" width="33" height="33" as="geometry" />
        </mxCell>
        <mxCell id="3AdVO18dZV3SQrVfkSz4-13" value="" style="outlineConnect=0;fontColor=#232F3E;gradientColor=none;fillColor=#D86613;strokeColor=none;dashed=0;verticalLabelPosition=bottom;verticalAlign=top;align=center;html=1;fontSize=12;fontStyle=0;aspect=fixed;pointerEvents=1;shape=mxgraph.aws4.a1_instance;" vertex="1" parent="1">
          <mxGeometry x="654.62" y="334.5" width="33" height="33" as="geometry" />
        </mxCell>
        <mxCell id="3AdVO18dZV3SQrVfkSz4-15" value="" style="outlineConnect=0;fontColor=#232F3E;gradientColor=none;fillColor=#D86613;strokeColor=none;dashed=0;verticalLabelPosition=bottom;verticalAlign=top;align=center;html=1;fontSize=12;fontStyle=0;aspect=fixed;pointerEvents=1;shape=mxgraph.aws4.m4_instance;" vertex="1" parent="1">
          <mxGeometry x="216" y="440" width="31" height="31" as="geometry" />
        </mxCell>
        <mxCell id="3AdVO18dZV3SQrVfkSz4-16" value="" style="outlineConnect=0;fontColor=#232F3E;gradientColor=none;fillColor=#D86613;strokeColor=none;dashed=0;verticalLabelPosition=bottom;verticalAlign=top;align=center;html=1;fontSize=12;fontStyle=0;aspect=fixed;pointerEvents=1;shape=mxgraph.aws4.m4_instance;" vertex="1" parent="1">
          <mxGeometry x="324.5" y="438" width="31" height="31" as="geometry" />
        </mxCell>
        <mxCell id="3AdVO18dZV3SQrVfkSz4-17" value="" style="outlineConnect=0;fontColor=#232F3E;gradientColor=none;fillColor=#D86613;strokeColor=none;dashed=0;verticalLabelPosition=bottom;verticalAlign=top;align=center;html=1;fontSize=12;fontStyle=0;aspect=fixed;pointerEvents=1;shape=mxgraph.aws4.m4_instance;" vertex="1" parent="1">
          <mxGeometry x="428.75" y="441.25" width="31" height="31" as="geometry" />
        </mxCell>
        <mxCell id="3AdVO18dZV3SQrVfkSz4-18" value="" style="outlineConnect=0;fontColor=#232F3E;gradientColor=none;fillColor=#D86613;strokeColor=none;dashed=0;verticalLabelPosition=bottom;verticalAlign=top;align=center;html=1;fontSize=12;fontStyle=0;aspect=fixed;pointerEvents=1;shape=mxgraph.aws4.m4_instance;" vertex="1" parent="1">
          <mxGeometry x="428.75" y="489" width="31" height="31" as="geometry" />
        </mxCell>
        <mxCell id="3AdVO18dZV3SQrVfkSz4-19" value="" style="outlineConnect=0;fontColor=#232F3E;gradientColor=none;fillColor=#D86613;strokeColor=none;dashed=0;verticalLabelPosition=bottom;verticalAlign=top;align=center;html=1;fontSize=12;fontStyle=0;aspect=fixed;pointerEvents=1;shape=mxgraph.aws4.m4_instance;" vertex="1" parent="1">
          <mxGeometry x="325.5" y="489" width="31" height="31" as="geometry" />
        </mxCell>
        <mxCell id="3AdVO18dZV3SQrVfkSz4-20" value="" style="outlineConnect=0;fontColor=#232F3E;gradientColor=none;fillColor=#D86613;strokeColor=none;dashed=0;verticalLabelPosition=bottom;verticalAlign=top;align=center;html=1;fontSize=12;fontStyle=0;aspect=fixed;pointerEvents=1;shape=mxgraph.aws4.m4_instance;" vertex="1" parent="1">
          <mxGeometry x="216" y="489" width="31" height="31" as="geometry" />
        </mxCell>
        <mxCell id="3AdVO18dZV3SQrVfkSz4-21" value="" style="outlineConnect=0;fontColor=#232F3E;gradientColor=none;fillColor=#D86613;strokeColor=none;dashed=0;verticalLabelPosition=bottom;verticalAlign=top;align=center;html=1;fontSize=12;fontStyle=0;aspect=fixed;pointerEvents=1;shape=mxgraph.aws4.m4_instance;" vertex="1" parent="1">
          <mxGeometry x="655.62" y="441.25" width="31" height="31" as="geometry" />
        </mxCell>
        <mxCell id="3AdVO18dZV3SQrVfkSz4-22" value="" style="outlineConnect=0;fontColor=#232F3E;gradientColor=none;fillColor=#D86613;strokeColor=none;dashed=0;verticalLabelPosition=bottom;verticalAlign=top;align=center;html=1;fontSize=12;fontStyle=0;aspect=fixed;pointerEvents=1;shape=mxgraph.aws4.m4_instance;" vertex="1" parent="1">
          <mxGeometry x="655.62" y="486.5" width="31" height="31" as="geometry" />
        </mxCell>
        <mxCell id="3AdVO18dZV3SQrVfkSz4-23" value="" style="outlineConnect=0;fontColor=#232F3E;gradientColor=none;fillColor=#D86613;strokeColor=none;dashed=0;verticalLabelPosition=bottom;verticalAlign=top;align=center;html=1;fontSize=12;fontStyle=0;aspect=fixed;pointerEvents=1;shape=mxgraph.aws4.m4_instance;" vertex="1" parent="1">
          <mxGeometry x="764.5" y="486" width="31" height="31" as="geometry" />
        </mxCell>
        <mxCell id="3AdVO18dZV3SQrVfkSz4-24" value="" style="outlineConnect=0;fontColor=#232F3E;gradientColor=none;fillColor=#D86613;strokeColor=none;dashed=0;verticalLabelPosition=bottom;verticalAlign=top;align=center;html=1;fontSize=12;fontStyle=0;aspect=fixed;pointerEvents=1;shape=mxgraph.aws4.m4_instance;" vertex="1" parent="1">
          <mxGeometry x="763.5" y="442.5" width="31" height="31" as="geometry" />
        </mxCell>
        <mxCell id="3AdVO18dZV3SQrVfkSz4-25" value="" style="outlineConnect=0;fontColor=#232F3E;gradientColor=none;fillColor=#D86613;strokeColor=none;dashed=0;verticalLabelPosition=bottom;verticalAlign=top;align=center;html=1;fontSize=12;fontStyle=0;aspect=fixed;pointerEvents=1;shape=mxgraph.aws4.m4_instance;" vertex="1" parent="1">
          <mxGeometry x="871.62" y="442.5" width="31" height="31" as="geometry" />
        </mxCell>
        <mxCell id="3AdVO18dZV3SQrVfkSz4-26" value="" style="outlineConnect=0;fontColor=#232F3E;gradientColor=none;fillColor=#D86613;strokeColor=none;dashed=0;verticalLabelPosition=bottom;verticalAlign=top;align=center;html=1;fontSize=12;fontStyle=0;aspect=fixed;pointerEvents=1;shape=mxgraph.aws4.m4_instance;" vertex="1" parent="1">
          <mxGeometry x="871.62" y="486" width="31" height="31" as="geometry" />
        </mxCell>
      </root>
    </mxGraphModel>
  </diagram>
</mxfile>
